<svg width="32" height="32" viewBox="0 0 32 32" fill="none" xmlns="http://www.w3.org/2000/svg">
<path d="M22.1348 17.6634L29.0988 22.5101C29.1992 22.5798 29.3158 22.6199 29.4362 22.6259C29.5567 22.6319 29.6765 22.6037 29.7828 22.5443C29.8891 22.4848 29.978 22.3964 30.0399 22.2884C30.1019 22.1805 30.1347 22.0569 30.1348 21.9311V10.5228C30.1348 10.4004 30.1039 10.2801 30.0451 10.1741C29.9864 10.0681 29.9019 9.98015 29.8002 9.91915C29.6985 9.85815 29.5831 9.82625 29.4658 9.82666C29.3485 9.82708 29.2334 9.8598 29.1321 9.92152L22.1348 14.1836" fill="#99BDFF"/>
<path d="M22.1348 17.6634L29.0988 22.5101C29.1992 22.5798 29.3158 22.6198 29.4362 22.6259C29.5567 22.6319 29.6765 22.6037 29.7828 22.5443C29.8891 22.4848 29.978 22.3964 30.0399 22.2884C30.1019 22.1805 30.1347 22.0569 30.1348 21.9311V10.5228C30.1348 10.4004 30.1039 10.2801 30.0451 10.1741C29.9864 10.0681 29.9019 9.98015 29.8002 9.91915C29.6985 9.85815 29.5831 9.82625 29.4658 9.82666C29.3485 9.82708 29.2334 9.8598 29.1321 9.92152L22.1348 14.1836" stroke="#52525B" stroke-linecap="round" stroke-linejoin="round"/>
<path d="M19.1232 8H5.40887C3.89403 8 2.66602 9.19391 2.66602 10.6667V21.3333C2.66602 22.8061 3.89403 24 5.40887 24H19.1232C20.638 24 21.866 22.8061 21.866 21.3333V10.6667C21.866 9.19391 20.638 8 19.1232 8Z" fill="#99BDFF" stroke="#52525B" stroke-linecap="round" stroke-linejoin="round"/>
</svg>
