<svg width="24" height="24" viewBox="0 0 24 24" fill="none" xmlns="http://www.w3.org/2000/svg">
<g clip-path="url(#clip0_94_1158)">
<path d="M5 12V19C5 19.5304 5.21071 20.0391 5.58579 20.4142C5.96086 20.7893 6.46957 21 7 21H17C17.5304 21 18.0391 20.7893 18.4142 20.4142C18.7893 20.0391 19 19.5304 19 19V12" fill="#F5A969"/>
<path d="M5 12V19C5 19.5304 5.21071 20.0391 5.58579 20.4142C5.96086 20.7893 6.46957 21 7 21H17C17.5304 21 18.0391 20.7893 18.4142 20.4142C18.7893 20.0391 19 19.5304 19 19V12" stroke="#52525B" stroke-linecap="round" stroke-linejoin="round"/>
<path d="M5 12H3L12 3L21 12H19" fill="#F5A969"/>
<path d="M5 12H3L12 3L21 12H19" stroke="#52525B" stroke-linecap="round" stroke-linejoin="round"/>
<path d="M9 20V14C9 13.4696 9.21071 12.9609 9.58579 12.5858C9.96086 12.2107 10.4696 12 11 12H13C13.5304 12 14.0391 12.2107 14.4142 12.5858C14.7893 12.9609 15 13.4696 15 14V20" fill="#F5A969"/>
<path d="M9 20V14C9 13.4696 9.21071 12.9609 9.58579 12.5858C9.96086 12.2107 10.4696 12 11 12H13C13.5304 12 14.0391 12.2107 14.4142 12.5858C14.7893 12.9609 15 13.4696 15 14V20" stroke="#52525B" stroke-linecap="square" stroke-linejoin="round"/>
</g>
<defs>
<clipPath id="clip0_94_1158">
<rect width="24" height="24" fill="white"/>
</clipPath>
</defs>
</svg>
