<svg width="24" height="25" viewBox="0 0 24 25" fill="none" xmlns="http://www.w3.org/2000/svg">
<path d="M12 13.9409C14.7614 13.9409 17 11.7023 17 8.94092C17 6.17949 14.7614 3.94092 12 3.94092C9.23858 3.94092 7 6.17949 7 8.94092C7 11.7023 9.23858 13.9409 12 13.9409Z" fill="#92CFF5" stroke="#52525B" stroke-linecap="round" stroke-linejoin="round"/>
<path d="M20 21.9409C20 19.8192 19.1571 17.7844 17.6569 16.2841C16.1566 14.7838 14.1217 13.9409 12 13.9409C9.87827 13.9409 7.84344 14.7838 6.34315 16.2841C4.84285 17.7844 4 19.8192 4 21.9409" fill="#92CFF5"/>
<path d="M20 21.9409C20 19.8192 19.1571 17.7844 17.6569 16.2841C16.1566 14.7838 14.1217 13.9409 12 13.9409C9.87827 13.9409 7.84344 14.7838 6.34315 16.2841C4.84285 17.7844 4 19.8192 4 21.9409H20Z" stroke="#52525B" stroke-linecap="round" stroke-linejoin="round"/>
</svg>
